# xmcd
#
# Track frame offsets: 
#        150
#        14157
#        29259
#        44068
#        55680
#        69466
#        82739
#        97308
#        111352
#        123939
#        138714
#        151044
#        165374
#        178897
#        192736
#        206645
#        219925
#        232437
#        244953
#        258651
#        271300
#
# Disc length: 3765 seconds
#
# Revision: 0
# Processed by: cddbd v1.5.1PL0 Copyright (c) Steve Scherf et al.
# Submitted via: ExactAudioCopy v0.90b4
#
DISCID=420eb315
DTITLE=Count Basie - Swinging The Blues - 1930-1939
DYEAR=2004
DGENRE=Blues
TTITLE0=Somebody Stole My Gal
TTITLE1=Moten Swing
TTITLE2=Boogie Woogie
TTITLE3=Roseland Shuffle
TTITLE4=One O'Clock Jump
TTITLE5=John's Idea
TTITLE6=Good Morning Blues
TTITLE7=Topsy
TTITLE8=Out The Window
TTITLE9=Every Tub
TTITLE10=Swinging The Blues
TTITLE11=Blue And Sentimental
TTITLE12=Doggin' Around
TTITLE13=Texas Shuffle
TTITLE14=Jumpin' At The Woodside
TTITLE15=How Long Blues
TTITLE16=Red Wagon
TTITLE17=Jive At Five
TTITLE18=Rock-A-Bye Basie
TTITLE19=Don't Worry 'Bout Me
TTITLE20=Clap Hands, Here Comes Charlie
EXTD=
EXTT0=
EXTT1=
EXTT2=
EXTT3=
EXTT4=
EXTT5=
EXTT6=
EXTT7=
EXTT8=
EXTT9=
EXTT10=
EXTT11=
EXTT12=
EXTT13=
EXTT14=
EXTT15=
EXTT16=
EXTT17=
EXTT18=
EXTT19=
EXTT20=
PLAYORDER=
